<svg width="78" height="20" viewBox="0 0 78 20" fill="none" xmlns="http://www.w3.org/2000/svg">
<path d="M11.3479 14.6971H3.62824L2.3159 19.3274H0L5.45523 0.699951H9.52092L14.9762 19.3274H12.6603L11.3479 14.6971ZM7.33368 1.65793L4.22008 12.6215H10.7561L7.64247 1.65793H7.33368Z" fill="white"/>
<path d="M17.6087 0.699951H19.7702V17.2518H29.1882V19.3274H17.6087V0.699951Z" fill="white"/>
<path d="M34.9858 0.699951V13.0473C34.9858 14.5552 35.3203 15.6995 35.9893 16.4801C36.6755 17.2429 37.6791 17.6243 39 17.6243C40.3209 17.6243 41.3159 17.2429 41.9849 16.4801C42.6711 15.6995 43.0142 14.5552 43.0142 13.0473V0.699951H45.1757V13.0473C45.1757 15.2116 44.6268 16.8615 43.5289 17.9969C42.431 19.1323 40.9213 19.7 39 19.7C37.0787 19.7 35.569 19.1323 34.4711 17.9969C33.3732 16.8615 32.8243 15.2116 32.8243 13.0473V0.699951H34.9858Z" fill="white"/>
<path d="M60.3913 19.3274H58.2298V13.1005C58.2298 12.6393 58.1269 12.2844 57.921 12.0361C57.7152 11.7877 57.3549 11.6635 56.8403 11.6635H51.2306V19.3274H49.0691V0.699951H55.5022C56.4286 0.699951 57.2348 0.841875 57.921 1.12572C58.6072 1.39183 59.1733 1.75551 59.6194 2.21676C60.0825 2.67801 60.4256 3.21909 60.6486 3.84001C60.8888 4.44318 61.0089 5.08184 61.0089 5.75597V6.55429C61.0089 7.24617 60.8202 7.93805 60.4428 8.62992C60.0825 9.3218 59.5164 9.85401 58.7444 10.2266V10.5459C59.2591 10.6346 59.6622 10.8475 59.9539 11.1845C60.2455 11.5216 60.3913 12.0006 60.3913 12.6215V19.3274ZM51.2306 9.5879H55.2449C56.4629 9.5879 57.3635 9.3218 57.9468 8.78959C58.5472 8.23963 58.8474 7.44131 58.8474 6.39463V5.91564C58.8474 4.97539 58.5472 4.22143 57.9468 3.65373C57.3635 3.0683 56.4629 2.77558 55.2449 2.77558H51.2306V9.5879Z" fill="white"/>
<path d="M74.3718 14.6971H66.6521L65.3397 19.3274H63.0238L68.4791 0.699951H72.5448L78 19.3274H75.6841L74.3718 14.6971ZM70.3575 1.65793L67.2439 12.6215H73.7799L70.6663 1.65793H70.3575Z" fill="white"/>
</svg>
